<?xml version="1.0" encoding="utf-8"?>
<!-- Generator: Adobe Illustrator 17.1.0, SVG Export Plug-In . SVG Version: 6.00 Build 0)  -->
<!DOCTYPE svg PUBLIC "-//W3C//DTD SVG 1.1//EN" "http://www.w3.org/Graphics/SVG/1.1/DTD/svg11.dtd">
<svg version="1.1" id="Layer_1" xmlns="http://www.w3.org/2000/svg" xmlns:xlink="http://www.w3.org/1999/xlink" x="0px" y="0px"
	 viewBox="0 0 420.6 47.7" enable-background="new 0 0 420.6 47.7" xml:space="preserve">
<path fill="#FFFFFF" d="M4.9,26.6v18.3c0,1.5-0.7,2.2-2.2,2.2H2.1c-1.4,0-2.1-0.7-2.1-2.2V3c0-1.5,1.2-2.7,2.7-2.7h26.1
	c1.4,0,2.2,0.7,2.2,2v0.4c0,1.4-0.8,2-2.2,2H4.9v17.6"/>
<path fill="#FFFFFF" d="M63.6,44.1V2.2c0-1.5,0.7-2.2,2.1-2.2h0.6c1.4,0,2.2,0.7,2.2,2.2v40.1h22.5c1.4,0,2.2,0.7,2.2,2.1v0.4
	c0,1.3-0.8,2.1-2.2,2.1H66.3C64.8,46.9,63.6,45.7,63.6,44.1z"/>
<path fill="#FFFFFF" d="M124.4,28.5V2.2c0-1.4,0.7-2.2,2.1-2.2h0.6c1.4,0,2.2,0.8,2.2,2.2v25.9c0,10,4.5,15.2,13.3,15.2
	c9,0,13.3-5,13.3-15.3V2.2c0-1.5,0.6-2.2,2-2.2h0.9c1.4,0,1.9,0.7,1.9,2.2v26.1c0,12.6-6.5,19.4-18.3,19.4
	C130.8,47.7,124.4,41,124.4,28.5z"/>
<path fill="#FFFFFF" d="M195.6,28.5V2.2c0-1.4,0.7-2.2,2.1-2.2h0.6c1.4,0,2.2,0.8,2.2,2.2v25.9c0,10,4.5,15.2,13.3,15.2
	c9,0,13.3-5,13.3-15.3V2.2c0-1.5,0.6-2.2,2-2.2h0.9c1.4,0,1.9,0.7,1.9,2.2v26.1c0,12.6-6.5,19.4-18.3,19.4
	C202,47.7,195.6,41,195.6,28.5z"/>
<path fill="#FFFFFF" d="M266.8,28.5V2.2c0-1.4,0.7-2.2,2.1-2.2h0.6c1.4,0,2.2,0.8,2.2,2.2v25.9c0,10,4.5,15.2,13.3,15.2
	c9,0,13.3-5,13.3-15.3V2.2c0-1.5,0.6-2.2,2-2.2h0.9c1.4,0,1.9,0.7,1.9,2.2v26.1c0,12.6-6.5,19.4-18.3,19.4
	C273.2,47.7,266.8,41,266.8,28.5z"/>
<path fill="#FFFFFF" d="M339.5,44.9V2.2c0-1.4,0.7-2.2,2.1-2.2h0.6c1.4,0,2.2,0.8,2.2,2.2v42.7c0,1.5-0.7,2.2-2.2,2.2h-0.6
	C340.2,47.2,339.5,46.4,339.5,44.9z"/>
<path fill="#FFFFFF" d="M395.1,0.3h-11c-1.5,0-2.7,1.2-2.7,2.7v1.4h4.9v0.2h8.9c12.8,0,20.4,7.1,20.4,19c0,12-7.4,18.9-20.5,18.9
	h-8.8v-0.4h-4.9v1.9c0,1.5,1.2,2.7,2.7,2.7h10.7c16.2,0,25.9-8.7,25.9-23.4C420.6,8.9,411.2,0.3,395.1,0.3z"/>
</svg>
