<?xml version="1.0" standalone="no"?>
<!DOCTYPE svg PUBLIC "-//W3C//DTD SVG 1.1//EN" "http://www.w3.org/Graphics/SVG/1.1/DTD/svg11.dtd" >
<svg xmlns="http://www.w3.org/2000/svg">
<metadata></metadata>
<defs>
<font id="vcr_osd_monoregular" horiz-adv-x="1200" >
<font-face units-per-em="2048" ascent="1638" descent="-410" />
<missing-glyph horiz-adv-x="500" />
<glyph unicode="&#xd;" />
<glyph horiz-adv-x="0" />
<glyph horiz-adv-x="0" />
<glyph unicode=" " />
<glyph unicode="!" d="M400 100v200h200v-200h-200zM400 500v1000h200v-1000h-200z" />
<glyph unicode="&#x22;" d="M200 1200v300h300v-300h-100v-100h-100v100h-100zM700 1200v300h300v-300h-100v-100h-100v100h-100z" />
<glyph unicode="#" d="M100 400v200h200v300h-200v200h200v300h200v-200h200v299h200v-199h200v-200h-200v-300h200v-200h-200v-301h-200v201h-200v-299h-200v199h-200zM500 700h200v300h-200v-300z" />
<glyph unicode="$" d="M100 400v200h200v-100h100v-100h100v300h-200v100h-100v100h-100v300h100v100h100v100h200v100h200v-100h200v-100h100v-100h100v-200h-200v100h-100v100h-100v-300h200v-100h100v-100h100v-300h-100v-100h-100v-100h-200v-103h-200v103h-200v100h-100v100h-100z M300 1000h100v-100h100v300h-100v-100h-100v-100zM700 400h100v100h100v100h-100v100h-100v-300z" />
<glyph unicode="%" d="M100 100v400h100v100h100v100h100v100h100v100h-299v100h-100v200h-1v200h100v100h300v-100h101v-400h99v100h100v100h100v300h200v-400h-100v-100h-100v-100h-100v-100h-100v-100h-100v-100h-100v-100h-100v-100h-100v-300h-200zM300 1200h1v-100h100v200h-101v-100z M501 900h99v100h-99v-100zM600 200v400h100v99h300v-99h101v-400h-101v-100h-300v100h-100zM800 300h101v199h-101v-199z" />
<glyph unicode="&#x26;" d="M100 300v500h100v100h100v200h-100v400h100v100h100v100h300v-100h100v-100h100v-400h-100v-200h-100v-200h100v-100h100v100h200v-200h-100v-200h100v-200h-200v100h-100v-100h-500v100h-100v100h-100zM300 400h100v-100h300v200h-100v100h-100v100h-200v-300zM400 1100 h100v-100h100v100h100v400h-300v-400z" />
<glyph unicode="'" d="M400 1200v300h300v-300h-100v-100h-100v100h-100z" />
<glyph unicode="(" d="M300 400v1000h100v100h100v100h100v100h200v-100h-100v-100h-100v-100h-100v-1000h100v-100h100v-100h100v-100h-200v100h-100v100h-100v100h-100z" />
<glyph unicode=")" d="M400 100v100h100v100h100v100h100v1000h-100v100h-100v100h-100v100h200v-100h100v-100h100v-100h100v-1000h-100v-100h-100v-100h-100v-100h-200z" />
<glyph unicode="*" d="M200 800v200h100v100h100v100h-100v100h-100v200h100v-100h100v-100h100v300h200v-300h100v100h100v100h100v-200h-100v-100h-100v-100h100v-100h100v-200h-100v100h-100v100h-100v-300h-200v300h-100v-100h-100v-100h-100z" />
<glyph unicode="+" d="M100 700v200h400v400h200v-400h400v-200h-400v-400h-200v400h-400z" />
<glyph unicode="," d="M300 100v100h100v100h100v200h200v-200h-100v-100h-100v-100h-200z" />
<glyph unicode="-" d="M200 700v200h800v-200h-800z" />
<glyph unicode="." d="M400 100v200h200v-200h-200z" />
<glyph unicode="/" d="M100 100v400h100v100h100v100h100v100h100v100h100v100h100v100h100v100h100v300h200v-400h-100v-100h-100v-100h-100v-100h-100v-100h-100v-100h-100v-100h-100v-100h-100v-300h-200z" />
<glyph unicode="0" d="M100 300v1000h100v100h100v100h600v-100h100v-100h100v-1000h-99v-101h-101v-99h-600v100h-100v100h-100zM300 400h100v-100h401v99h99v501h-100v-100h-100v-100h-100v-100h-100v-100h-200v-100zM300 700h100v100h100v100h100v100h100v100h200v100h-100v100h-400v-100 h-100v-500z" />
<glyph unicode="1" d="M300 100v200h200v800h-200v200h100v100h100v100h200v-1200h200v-200h-600z" />
<glyph unicode="2" d="M100 100v600h100v100h100v100h500v100h100v200h-100v100h-400v-100h-100v-100h-200v200h100v100h100v100h600v-100h100v-100h100v-400h-100v-100h-100v-100h-500v-100h-100v-300h800v-200h-1000z" />
<glyph unicode="3" d="M100 300v200h200v-100h99v-100h401v100h100v200h-100v100h-300v200h300v100h100v200h-100v100h-400v-100h-100v-100h-200v200h100v100h100v100h600v-100h100v-100h100v-400h-100v-200h100v-400h-100v-100h-100v-100h-600v100h-101v100h-99z" />
<glyph unicode="4" d="M100 500v400h100v100h100v100h100v100h100v100h100v100h100v100h200v-800h200v-200h-200v-400h-200v400h-600zM300 700h400v400h-100v-100h-100v-100h-100v-100h-100v-100z" />
<glyph unicode="5" d="M100 301v200h200v-101h100v-100h400v100h100v300h-1v100h-99v100h-700v600h1000v-200h-800v-200h600v-100h100v-100h99v-200h1v-400h-100v-100h-100v-100h-600v100h-100v101h-100z" />
<glyph unicode="6" d="M100 300v1000h100v100h100v100h600v-101h100v-99h100v-200h-200v99h-100v101h-400v-100h-100v-300h600v-100h100v-100h100v-400h-100v-100h-100v-100h-600v100h-100v100h-100zM300 400h100v-100h400v100h100v200h-100v100h-500v-300z" />
<glyph unicode="7" d="M100 1300v200h1000v-500h-100v-100h-100v-100h-100v-100h-100v-600h-200v700h100v100h100v100h100v100h100v200h-800z" />
<glyph unicode="8" d="M100 300v400h100v200h-100v400h100v100h100v100h600v-100h100v-100h100v-400h-100v-101h-1v-99h101v-400h-100v-100h-100v-100h-600v100h-100v100h-100zM300 400h100v-100h400v100h100v201h-101v99h-399v-100h-100v-200zM300 1000h100v-100h400v99h100v201h-100v100h-400 v-100h-100v-200z" />
<glyph unicode="9" d="M100 300v200h200v-100h100v-100h400v100h100v300h-600v99h-100v101h-100v400h100v100h100v100h600v-100h100v-100h100v-1000h-100v-100h-100v-100h-600v100h-100v100h-100zM300 999h100v-99h500v300h-100v100h-400v-100h-100v-201z" />
<glyph unicode=":" d="M400 300v200h200v-200h-200zM400 1100v200h200v-200h-200z" />
<glyph unicode=";" d="M200 100v100h100v100h100v200h200v-200h-100v-100h-100v-100h-200zM400 1100v200h200v-200h-200z" />
<glyph unicode="&#x3c;" d="M200 700v300h100v100h100v100h100v100h100v100h100v100h100v100h200v-200h-100v-100h-100v-100h-100v-100h-100v-100h-100v-100h-100v-100h100v-100h100v-100h100v-100h100v-100h100v-100h100v-200h-200v100h-100v100h-100v100h-100v100h-100v100h-100v100h-100z" />
<glyph unicode="=" d="M100 500v200h1000v-200h-1000zM100 900v200h1000v-200h-1000z" />
<glyph unicode="&#x3e;" d="M200 100v200h100v100h100v100h100v100h100v100h100v100h100v100h-100v100h-100v100h-100v100h-100v100h-100v100h-100v200h200v-100h100v-100h100v-100h100v-100h100v-100h100v-100h100v-300h-100v-100h-100v-100h-100v-100h-100v-100h-100v-100h-100v-100h-200z" />
<glyph unicode="?" d="M100 1100v200h100v100h100v100h600v-100h100v-100h101v-200h-1v-200h-100v-100h-100v-100h-100v-100h-100v-100h-200v200h100v100h100v100h100v100h100v100h1v100h-101v100h-400v-100h-100v-100h-200zM500 100v200h200v-200h-200z" />
<glyph unicode="@" d="M100 400v800h100v100h100v100h600v-100h100v-100h100v-600h-100v-100h-200v100h100v100h100v400h-100v100h-100v100h-400v-100h-100v-100h-100v-600h100v-100h100v-100h400v100h200v-100h-100v-100h-600v100h-100v100h-100zM300 600v400h100v100h200v-100h100v100h100 v-500h-100v-100h-300v100h-100zM500 600h100v400h-100v-400z" />
<glyph unicode="A" d="M100 100v1000h100v100h100v100h100v100h100v100h200v-100h100v-100h100v-100h100v-100h100v-1000h-200v400h-600v-400h-200zM300 700h600v300h-100v100h-100v100h-200v-100h-100v-100h-100v-300z" />
<glyph unicode="B" d="M100 100v1400h800v-100h100v-100h100v-400h-100v-200h100v-400h-100v-100h-100v-100h-800zM300 300h500v100h100v200h-100v100h-500v-400zM300 900h500v100h100v200h-100v100h-500v-400z" />
<glyph unicode="C" d="M100 300v1000h100v100h100v100h600v-100h100v-100h100v-200h-200v100h-100v100h-400v-100h-100v-800h100v-101h400v100h100v99h200v-200h-100v-99h-100v-100h-600v101h-100v100h-100z" />
<glyph unicode="D" d="M100 101v1400h799v-100h101v-100h100v-1000h-100v-100h-100v-101h-200v1h-600zM300 300h400v-1h100v101h100v800h-100v100h-500v-1000z" />
<glyph unicode="E" d="M100 100v1400h1000v-200h-800v-400h600v-200h-600v-400h800v-200h-1000z" />
<glyph unicode="F" d="M100 100v1400h1000v-200h-800v-400h600v-200h-600v-600h-200z" />
<glyph unicode="G" horiz-adv-x="1201" d="M100 300v200h1v400h1v200h-2v200h101v100h101v100h599v-100h100v-100h100v-200h-200v100h-100v100h-400v-100h-101v-100h2v-200h-1v-400h-1v-100h101v-100h300v-1h100v101h100v300h-300v200h500v-600h-100v-100h-100v-101h-200v1h-400v100h-100v100h-101z" />
<glyph unicode="H" d="M100 100v1400h200v-600h600v600h200v-1400h-200v600h-600v-600h-200z" />
<glyph unicode="I" d="M300 100v200h200v1000h-200v200h600v-200h-200v-1000h200v-200h-600z" />
<glyph unicode="J" d="M100 300v200h200v-100h100v-100h200v100h100v900h-200v200h600v-200h-200v-1000h-100v-100h-100v-100h-400v100h-100v100h-100z" />
<glyph unicode="K" d="M100 100v1400h200v-600h100v100h100v100h100v100h100v100h100v100h100v100h200v-200h-100v-100h-100v-100h-100v-100h-100v-100h-100v-200h100v-100h100v-100h100v-100h100v-100h100v-200h-200v100h-100v100h-100v100h-100v100h-100v100h-100v100h-100v-600h-200z" />
<glyph unicode="L" d="M100 100v1400h200v-1200h800v-200h-1000z" />
<glyph unicode="M" d="M100 1300v200h200v-200h101v-100h100v-100h200v100h100v100h101v199h200v-200h-1v-1199h-200v900h-100v-100h-100v-200h-200v200h-100v100h-100v-900h-200v1200h-1z" />
<glyph unicode="N" d="M100 100v1400h200v-299h100v-101h100v-100h100v-100h100v-100h100v-100h100v800h200v-1400h-200v300h-100v100h-100v100h-100v100h-100v100h-100v100h-100v-800h-200z" />
<glyph unicode="O" d="M100 300v1000h100v100h100v100h600v-100h100v-100h100v-1000h-99v-101h-101v-99h-600v100h-100v100h-100zM300 400h100v-100h401v99h99v801h-100v100h-400v-100h-100v-800z" />
<glyph unicode="P" d="M100 100v1400h800v-100h100v-100h100v-400h-100v-100h-100v-100h-600v-600h-200zM300 900h500v100h100v200h-100v100h-500v-400z" />
<glyph unicode="Q" d="M100 300v1000h100v100h100v100h600v-100h100v-100h100v-900h-100v-100h100v-200h-200v100h-200v-100h-400v100h-100v100h-100zM300 400h100v-100h300v100h-100v100h-100v200h200v-100h100v-100h100v700h-100v100h-400v-100h-100v-800z" />
<glyph unicode="R" d="M100 100v1400h800v-100h100v-100h100v-400h-100v-100h-100v-100h-200v-100h100v-100h100v-99h100v-101h100v-200h-200v101h-100v99h-100v100h-100v100h-100v100h-100v100h-100v-600h-200zM300 900h500v100h100v200h-100v100h-500v-400z" />
<glyph unicode="S" d="M100 300v200h200v-100h100v-100h400v100h100v200h-100v100h-500v100h-100v100h-100v400h100v100h100v100h600v-100h100v-100h100v-200h-200v100h-100v100h-400v-100h-100v-200h100v-100h500v-100h100v-100h100v-400h-100v-100h-100v-100h-600v100h-100v100h-100z" />
<glyph unicode="T" d="M100 1300v200h1000v-200h-400v-1200h-200v1200h-400z" />
<glyph unicode="U" d="M100 300v1200h200v-1100h100v-100h400v100h100v1100h200v-1200h-100v-100h-100v-100h-600v100h-100v100h-100z" />
<glyph unicode="V" d="M100 500v1000h200v-900h100v-100h100v-100h200v98h100v102h100v900h200v-1000h-100v-100h-100v-102h-100v-98h-100v-100h-200v100h-100v100h-100v100h-100v100h-100z" />
<glyph unicode="W" d="M100 300v1200h200v-1100h200v500h200v-500h200v1100h200v-1200h-100v-100h-100v-100h-200v100h-200v-100h-200v100h-100v100h-100z" />
<glyph unicode="X" d="M100 100v400h100v100h100v100h100v200h-100v100h-100v100h-100v400h200v-300h100v-100h100v-100h200v100h100v100h100v300h200v-400h-100v-100h-100v-100h-100v-200h100v-100h100v-100h100v-400h-200v300h-100v100h-100v100h-200v-100h-100v-100h-100v-300h-200z" />
<glyph unicode="Y" d="M100 901v599h200v-500h100v-100h100v-100h200v100h100v100h100v500h200v-600h-100v-100h-100v-100h-100v-100h-100v-500h-200v500h-100v100h-100v100h-100v101h-100z" />
<glyph unicode="Z" d="M100 100v400h100v100h100v100h99v100h100v100h101v100h100v100h101v100h99v100h-800v200h1000v-400h-99v-100h-101v-100h-100v-100h-101v-100h-100v-100h-99v-100h-100v-100h-100v-100h800v-200h-1000z" />
<glyph unicode="[" d="M400 100v1600h600v-200h-400v-1200h400v-200h-600z" />
<glyph unicode="\" d="M100 1100v400h200v-300h100v-100h100v-100h100v-100h100v-100h100v-100h100v-100h100v-100h100v-400h-200v300h-100v100h-100v100h-100v100h-100v100h-100v100h-100v100h-100v100h-100z" />
<glyph unicode="]" d="M200 100v200h400v1200h-400v200h600v-1600h-600z" />
<glyph unicode="^" d="M100 1000v100h100v100h100v100h100v100h100v100h200v-100h100v-100h100v-100h100v-100h100v-100h-300v100h-100v100h-200v-100h-100v-100h-300z" />
<glyph unicode="_" d="M0 0v200h1200v-200h-1200z" />
<glyph unicode="`" d="M300 1400v100h299v-100h100v-100h101v-100h-200v100h-201v100h-99z" />
<glyph unicode="a" d="M100 300v400h100v100h100v100h500v-100h100v200h-100v100h-500v200h600v-100h100v-100h100v-1000h-200v100h-100v-100h-500v100h-100v100h-100zM300 400h100v-100h400v100h100v200h-100v100h-400v-100h-100v-200z" />
<glyph unicode="b" d="M100 100v1400h200v-500h100v100h100v100h300v-100h100v-100h100v-100h100v-500h-100v-100h-100v-100h-100v-100h-300v100h-100v100h-100v-200h-200zM400 500h100v-100h100v-100h100v100h100v100h100v300h-100v100h-100v100h-100v-100h-100v-100h-100v-300z" />
<glyph unicode="c" d="M100 300v700h100v100h100v100h600v-100h100v-100h100v-200h-200v100h-100v100h-400v-100h-100v-500h100v-100h400v100h100v100h200v-200h-100v-100h-100v-100h-600v100h-100v100h-100z" />
<glyph unicode="d" d="M100 400v500h100v100h100v100h100v100h300v-100h100v-100h100v500h200v-1400h-200v200h-100v-100h-100v-100h-300v100h-100v100h-100v100h-100zM300 500h100v-100h100v-100h100v100h100v100h100v300h-100v100h-100v100h-100v-100h-100v-100h-100v-300z" />
<glyph unicode="e" d="M100 300v700h100v100h100v100h600v-100h100v-100h100v-300h-100v-100h-700v-200h100v-100h400v100h300v-100h-100v-100h-100v-100h-600v100h-100v100h-100zM300 800h600v100h-100v100h-400v-100h-100v-100z" />
<glyph unicode="f" d="M200 1000v200h300v200h100v100h400v-200h-300v-100h300v-200h-300v-900h-200v900h-300z" />
<glyph unicode="g" d="M100 800v300h100v100h100v100h600v-100h100v-100h100v-800h-100v-100h-100v-100h-600v100h-100v200h200v-100h400v100h100v300h-100v-100h-500v100h-100v100h-100zM300 900h100v-100h400v100h100v100h-100v100h-400v-100h-100v-100z" />
<glyph unicode="h" d="M100 100v1400h200v-500h100v100h100v100h300v-100h100v-100h100v-100h100v-800h-200v700h-100v100h-100v100h-100v-100h-100v-100h-100v-100h-100v-600h-200z" />
<glyph unicode="i" d="M300 800v200h400v-600h100v-100h100v-200h-200v100h-100v100h-100v500h-200zM500 1200v200h200v-200h-200z" />
<glyph unicode="j" d="M300 100v200h300v100h100v600h-200v200h400v-900h-100v-100h-100v-100h-400zM700 1400v200h200v-200h-200z" />
<glyph unicode="k" d="M100 100v1400h200v-900h100v100h100v100h100v100h100v100h100v100h100v100h200v-200h-100v-100h-100v-100h-100v-100h-100v-100h100v-100h100v-100h100v-100h100v-200h-200v100h-100v100h-100v100h-100v100h-100v-100h-100v-100h-100v-200h-200z" />
<glyph unicode="l" d="M500 100v1400h200v-1400h-200z" />
<glyph unicode="m" d="M100 100v1100h200v-100h100v100h500v-100h100v-100h100v-900h-200v800h-100v100h-100v-900h-200v900h-100v-100h-100v-800h-200z" />
<glyph unicode="n" d="M100 100v1100h200v-100h100v100h500v-100h100v-100h100v-900h-200v800h-100v100h-400v-100h-100v-800h-200z" />
<glyph unicode="o" d="M100 300v700h100v100h100v100h600v-100h100v-100h100v-700h-100v-100h-100v-100h-600v100h-100v100h-100zM300 400h100v-100h400v100h100v500h-100v100h-400v-100h-100v-500z" />
<glyph unicode="p" d="M100 100v1200h200v-100h100v100h500v-100h100v-100h100v-500h-100v-100h-100v-100h-500v100h-100v-400h-200zM400 700h100v-100h300v100h100v300h-100v100h-300v-100h-100v-300z" />
<glyph unicode="q" d="M100 600v500h100v100h100v100h500v-100h100v100h200v-1200h-200v300h-100v100h-100v-100h-400v100h-100v100h-100zM300 700h100v-100h300v100h100v300h-100v100h-300v-100h-100v-300z" />
<glyph unicode="r" d="M100 100v1100h200v-200h100v100h100v100h400v-100h100v-100h100v-200h-200v100h-100v100h-200v-100h-100v-100h-100v-100h-100v-600h-200z" />
<glyph unicode="s" d="M100 300v200h200v-100h100v-100h400v200h-200v100h-200v100h-200v100h-100v200h100v100h100v100h600v-100h100v-100h100v-200h-200v100h-100v100h-400v-200h300v-100h200v-100h100v-100h100v-200h-100v-100h-100v-100h-600v100h-100v100h-100z" />
<glyph unicode="t" d="M300 1000v200h200v300h200v-300h200v-200h-200v-600h100v-100h100v-200h-200v100h-100v100h-100v700h-200z" />
<glyph unicode="u" d="M100 300v900h200v-800h100v-100h400v100h100v800h200v-900h-100v-100h-100v-100h-600v100h-100v100h-100z" />
<glyph unicode="v" d="M100 500v700h200v-600h100v-100h100v-100h200v100h100v100h100v600h200v-700h-100v-100h-100v-100h-100v-100h-100v-100h-200v100h-100v100h-100v100h-100v100h-100z" />
<glyph unicode="w" d="M100 300v900h200v-800h100v-100h100v500h200v-500h100v100h100v800h200v-900h-100v-100h-100v-100h-200v100h-200v-100h-200v100h-100v100h-100z" />
<glyph unicode="x" d="M100 100v200h100v100h100v100h100v100h100v100h-100v100h-100v100h-100v100h-100v200h200v-100h100v-100h100v-100h200v100h100v100h100v100h200v-200h-100v-100h-100v-100h-100v-100h-100v-100h100v-100h100v-100h100v-100h100v-200h-200v100h-100v100h-100v100h-200 v-100h-100v-100h-100v-100h-200z" />
<glyph unicode="y" d="M100 700v600h200v-500h100v-100h200v100h100v100h100v200h100v200h200v-1000h-100v-100h-100v-100h-600v200h500v100h100v300h-100v-100h-100v-100h-400v100h-100v100h-100z" />
<glyph unicode="z" d="M100 100v200h100v100h100v100h100v100h100v100h100v100h100v100h100v100h-700v200h1000v-300h-100v-100h-100v-100h-100v-100h-100v-100h-100v-100h-100v-100h600v-200h-1000z" />
<glyph unicode="{" d="M300 800v200h200v500h100v200h300v-300h-200v-400h-100v-200h100v-400h200v-300h-300v200h-100v500h-200z" />
<glyph unicode="|" d="M500 100v1600h200v-1600h-200z" />
<glyph unicode="}" d="M300 100v300h200v400h100v200h-100v400h-200v300h300v-200h100v-500h200v-200h-200v-500h-100v-200h-300z" />
<glyph unicode="~" d="M100 600v200h100v99h100v101h300v-100h100v-100h200v100h100v100h100v-200h-100v-100h-100v-100h-300v100h-100v100h-200v-100h-100v-100h-100z" />
<glyph unicode="&#xa0;" />
<glyph unicode="&#xa1;" d="M600 100v1000h200v-1000h-200zM600 1300v200h200v-200h-200z" />
<glyph unicode="&#xa2;" d="M100 500v600h100v100h100v100h200v200h200v-200h200v-100h100v-99h101v-200h-200v99h-101v100h-99v-1h-1v-599h100v100h100v100h200v-200h-100v-100h-100v-100h-200v-200h-200v200h-200v100h-100v100h-100zM300 600h100v-100h100v600h-100v-100h-100v-400z" />
<glyph unicode="&#xa3;" d="M100 100v200h100v100h100v500h-200v200h200v400h100v100h100v100h400v-100h100v-100h100v-200h-200v100h-100v100h-200v-100h-100v-300h400v-200h-400v-500h-100v-100h700v-200h-1000z" />
<glyph unicode="&#xa5;" d="M200 300v100h300v200h-300v100h300v100h-100v200h-100v200h-100v300h200v-300h100v-200h200v200h100v300h200v-300h-100v-200h-100v-200h-100v-100h300v-100h-300v-200h300v-100h-300v-200h-200v200h-300z" />
<glyph unicode="&#xa6;" d="M500 100v700h200v-700h-200zM500 1000v700h200v-700h-200z" />
<glyph unicode="&#xa8;" d="M300 1300v200h200v-200h-200zM700 1300v200h200v-200h-200z" />
<glyph unicode="&#xa9;" d="M100 500v700h100v100h100v100h600v-100h100v-100h100v-700h-100v-100h-100v-100h-600v100h-100v100h-100zM200 600h100v-100h100v-100h400v100h100v100h100v500h-100v100h-100v100h-400v-100h-100v-100h-100v-500zM400 600v500h100v100h300v-100h-200v-100h-100v-300h100 v-100h200v-100h-300v100h-100z" />
<glyph unicode="&#xaa;" d="M200 400v200h700v-200h-700zM200 800v300h100v100h400v200h-300v-100h-200v100h100v100h500v-100h100v-700h-100v100h-100v-100h-400v100h-100zM300 900h100v-100h300v300h-300v-100h-100v-100z" />
<glyph unicode="&#xab;" d="M100 700v100h100v100h100v100h100v100h100v100h100v-200h-100v-100h-100v-100h-100v-100h100v-100h100v-100h100v-200h-100v100h-100v100h-100v100h-100v100h-100zM600 700v100h100v100h100v100h100v100h100v100h100v-200h-100v-100h-100v-100h-100v-100h100v-100h100 v-100h100v-200h-100v100h-100v100h-100v100h-100v100h-100z" />
<glyph unicode="&#xad;" d="M200 700v200h800v-200h-800z" />
<glyph unicode="&#xae;" d="M100 700v600h100v100h100v100h600v-100h100v-100h100v-600h-100v-100h-100v-100h-600v100h-100v100h-100zM200 800h100v-100h100v-100h400v100h100v100h100v400h-100v100h-100v100h-400v-100h-100v-100h-100v-400zM400 700v600h300v-100h-200v-200h200v-100h-200v-200 h-100zM700 700v200h100v-200h-100zM700 1000v200h100v-200h-100z" />
<glyph unicode="&#xb0;" d="M100 900v400h100v100h100v100h400v-100h100v-100h100v-400h-100v-100h-100v-100h-400v100h-100v100h-100zM300 1000h100v-100h200v100h100v200h-100v100h-200v-100h-100v-200z" />
<glyph unicode="&#xb2;" d="M300 1000v300h100v100h200v200h-100v-100h-200v100h100v100h300v-100h100v-200h-100v-100h-200v-200h300v-100h-500z" />
<glyph unicode="&#xb3;" d="M300 1100v100h200v-100h100v200h-100v100h100v200h-100v-100h-200v100h100v100h300v-100h100v-200h-100v-100h100v-200h-100v-100h-300v100h-100z" />
<glyph unicode="&#xb4;" d="M400 1200v100h101v100h100v100h299v-100h-99v-100h-201v-100h-200z" />
<glyph unicode="&#xb9;" d="M400 1000v100h100v400h-100v100h100v100h200v-600h100v-100h-400z" />
<glyph unicode="&#xba;" d="M200 400v200h700v-200h-700zM200 900v400h100v100h100v100h300v-100h100v-100h100v-400h-100v-100h-100v-100h-300v100h-100v100h-100zM400 900h300v400h-300v-400z" />
<glyph unicode="&#xbb;" d="M100 300v200h100v100h100v100h100v100h-100v100h-100v100h-100v200h100v-100h100v-100h100v-100h100v-100h100v-100h-100v-100h-100v-100h-100v-100h-100v-100h-100zM600 300v200h100v100h100v100h100v100h-100v100h-100v100h-100v200h100v-100h100v-100h100v-100h100 v-100h100v-100h-100v-100h-100v-100h-100v-100h-100v-100h-100z" />
<glyph unicode="&#xbc;" d="M100 100v200h100v200h100v200h100v200h100v100h100v200h100v200h100v100h1v100h99v100h100v-200h-100v-200h-100v-200h-100v-200h-100v-100h-100v-200h-100v-200h-100v-200h-100v-100h-100zM100 1000v100h100v400h-100v100h100v100h200v-600h100v-100h-400zM600 300v200 h100v200h100v100h200v-400h100v-100h-100v-200h-100v200h-300zM800 400h100v200h-100v-200z" />
<glyph unicode="&#xbd;" d="M100 100v200h100v200h100v200h100v200h100v100h100v200h100v200h100v100h1v100h99v100h100v-200h-100v-200h-100v-200h-100v-200h-100v-100h-100v-200h-100v-200h-100v-200h-100v-100h-100zM100 1000v100h100v400h-100v100h100v100h200v-600h100v-100h-400zM600 100v300 h100v100h200v200h-100v-100h-200v100h100v100h300v-100h100v-200h-100v-100h-200v-200h300v-100h-500z" />
<glyph unicode="&#xbe;" d="M100 1100v100h200v-100h100v200h-100v100h100v200h-100v-100h-200v100h100v100h300v-100h100v-200h-100v-100h100v-200h-100v-100h-300v100h-100zM200 100v200h100v200h100v200h100v200h100v100h100v200h100v200h100v100h1v100h99v100h100v-200h-100v-200h-100v-200h-100 v-200h-100v-100h-100v-200h-100v-200h-100v-200h-100v-100h-100zM600 300v200h100v200h100v100h200v-400h100v-100h-100v-200h-100v200h-300zM800 400h100v200h-100v-200z" />
<glyph unicode="&#xbf;" d="M100 300v200h1v200h100v100h100v100h100v100h100v100h200v-200h-100v-100h-100v-100h-100v-100h-100v-100h-1v-100h101v-100h400v100h100v100h200v-200h-100v-100h-100v-100h-600v100h-100v100h-101zM501 1300v200h200v-200h-200z" />
<glyph unicode="&#xc0;" d="M100 100v800h100v100h100v100h100v100h100v100h200v-101h100v-99h100v-100h100v-100h100v-800h-200v300h-600v-300h-200zM300 600h600v200h-100v100h-100v99h-100v1h-100v-100h-100v-100h-100v-200zM300 1600v100h300v-100h100v-100h100v-100h-200v100h-200v100h-100z " />
<glyph unicode="&#xc1;" d="M100 100v800h100v100h100v100h100v100h100v100h200v-101h100v-99h100v-100h100v-100h100v-800h-200v300h-600v-300h-200zM300 600h600v200h-100v100h-100v99h-100v1h-100v-100h-100v-100h-100v-200zM400 1400v100h100v100h100v100h300v-100h-100v-100h-200v-100h-200z " />
<glyph unicode="&#xc2;" d="M100 100v800h100v100h100v100h100v100h100v100h200v-101h100v-99h100v-100h100v-100h100v-800h-200v300h-600v-300h-200zM300 600h600v200h-100v100h-100v99h-100v1h-100v-100h-100v-100h-100v-200zM300 1400v100h100v100h100v100h200v-100h100v-100h100v-100h-200v100 h-200v-100h-200z" />
<glyph unicode="&#xc3;" d="M100 100v800h100v100h100v100h100v100h100v100h200v-101h100v-99h100v-100h100v-100h100v-800h-200v300h-600v-300h-200zM300 600h600v200h-100v100h-100v99h-100v1h-100v-100h-100v-100h-100v-200zM300 1400v200h100v100h200v-100h200v100h100v-200h-100v-100h-200v100 h-200v-100h-100z" />
<glyph unicode="&#xc4;" d="M100 100v800h100v100h100v100h100v100h100v100h200v-101h100v-99h100v-100h100v-100h100v-800h-200v300h-600v-300h-200zM300 600h600v200h-100v100h-100v99h-100v1h-100v-100h-100v-100h-100v-200zM300 1500v200h200v-200h-200zM700 1500v200h200v-200h-200z" />
<glyph unicode="&#xc5;" d="M100 100v800h100v100h100v100h100v100h100v100h200v-101h100v-99h100v-100h100v-100h100v-800h-200v300h-600v-300h-200zM300 600h600v200h-100v100h-100v99h-100v1h-100v-100h-100v-100h-100v-200zM400 1400v200h100v-200h-100zM500 1300v100h200v-100h-200zM500 1600 v100h200v-100h-200zM700 1400v200h100v-200h-100z" />
<glyph unicode="&#xc6;" d="M100 100v900h100v200h100v100h100v100h100v100h100v100h500v-200h-300v-400h300v-200h-300v-500h300v-200h-500v400h-300v-400h-200zM300 700h300v500h-100v-100h-100v-100h-100v-300z" />
<glyph unicode="&#xc7;" d="M100 600v700h100v100h100v100h600v-100h100v-100h100v-200h-200v100h-100v100h-400v-100h-100v-500h100v-100h400v100h100v100h200v-200h-100v-100h-100v-100h-100v-100h-100v-100h-100v-100h-300v100h100v100h100v100h-200v100h-100v100h-100z" />
<glyph unicode="&#xc8;" d="M100 100v1200h1000v-200h-800v-300h600v-200h-600v-300h800v-200h-1000zM300 1600v100h300v-100h100v-100h100v-100h-200v100h-200v100h-100z" />
<glyph unicode="&#xc9;" d="M100 100v1200h1000v-200h-800v-300h600v-200h-600v-300h800v-200h-1000zM400 1400v100h100v100h100v100h300v-100h-100v-100h-200v-100h-200z" />
<glyph unicode="&#xca;" d="M100 100v1200h1000v-200h-800v-300h600v-200h-600v-300h800v-200h-1000zM300 1400v100h100v100h100v100h200v-100h100v-100h100v-100h-200v100h-200v-100h-200z" />
<glyph unicode="&#xcb;" d="M100 100v1200h1000v-200h-800v-300h600v-200h-600v-300h800v-200h-1000zM300 1500v200h200v-200h-200zM700 1500v200h200v-200h-200z" />
<glyph unicode="&#xcc;" d="M300 100v200h200v800h-200v200h600v-200h-200v-800h200v-200h-600zM301 1600v100h299v-100h100v-100h101v-100h-200v100h-201v100h-99z" />
<glyph unicode="&#xcd;" d="M300 100v200h200v800h-200v200h600v-200h-200v-800h200v-200h-600zM400 1400v100h101v100h100v100h299v-100h-99v-100h-201v-100h-200z" />
<glyph unicode="&#xce;" d="M300 100v200h200v800h-200v200h600v-200h-200v-800h200v-200h-600zM300 1400v100h100v100h100v100h200v-100h100v-100h100v-100h-200v100h-200v-100h-200z" />
<glyph unicode="&#xcf;" d="M300 100v200h200v800h-200v200h600v-200h-200v-800h200v-200h-600zM300 1500v200h200v-200h-200zM700 1500v200h200v-200h-200z" />
<glyph unicode="&#xd0;" d="M100 700v200h100v601h699v-100h101v-100h100v-1000h-100v-100h-100v-101h-200v1h-500v599h-100zM400 300h300v-1h100v101h100v800h-100v100h-400v-400h200v-200h-200v-400z" />
<glyph unicode="&#xd1;" d="M100 100v1200h200v-200h100v-100h100v-100h100v-100h100v-100h100v-100h100v700h200v-1200h-200v200h-100v100h-100v100h-100v100h-100v100h-100v100h-100v-700h-200zM300 1400v200h100v100h200v-100h200v100h100v-200h-100v-100h-200v100h-200v-100h-100z" />
<glyph unicode="&#xd2;" d="M100 300v800h100v100h100v100h600v-100h100v-100h100v-800h-100v-100h-100v-100h-600v100h-100v100h-100zM300 400h100v-100h400v100h100v600h-100v100h-400v-100h-100v-600zM300 1600v100h300v-100h100v-100h100v-100h-200v100h-200v100h-100z" />
<glyph unicode="&#xd3;" d="M100 300v800h100v100h100v100h600v-100h100v-100h100v-800h-100v-100h-100v-100h-600v100h-100v100h-100zM300 400h100v-100h400v100h100v600h-100v100h-400v-100h-100v-600zM400 1400v100h100v100h100v100h300v-100h-100v-100h-200v-100h-200z" />
<glyph unicode="&#xd4;" d="M100 300v800h100v100h100v100h600v-100h100v-100h100v-800h-100v-100h-100v-100h-600v100h-100v100h-100zM300 400h100v-100h400v100h100v600h-100v100h-400v-100h-100v-600zM300 1400v100h100v100h100v100h200v-100h100v-100h100v-100h-200v100h-200v-100h-200z" />
<glyph unicode="&#xd5;" d="M100 300v800h100v100h100v100h600v-100h100v-100h100v-800h-100v-100h-100v-100h-600v100h-100v100h-100zM300 400h100v-100h400v100h100v600h-100v100h-400v-100h-100v-600zM300 1400v200h100v100h200v-100h200v100h100v-200h-100v-100h-200v100h-200v-100h-100z" />
<glyph unicode="&#xd6;" d="M100 300v800h100v100h100v100h600v-100h100v-100h100v-800h-100v-100h-100v-100h-600v100h-100v100h-100zM300 400h100v-100h400v100h100v600h-100v100h-400v-100h-100v-600zM300 1500v200h200v-200h-200zM700 1500v200h200v-200h-200z" />
<glyph unicode="&#xd8;" d="M100 100v200h100v100h-100v900h100v100h100v100h500v-100h100v100h200v-200h-100v-100h100v-900h-100v-100h-100v-100h-500v100h-100v-100h-200zM300 500h100v200h100v200h100v200h100v200h-300v-100h-100v-700zM500 300h300v100h100v700h-100v-200h-100v-1h1v-100h-1 v-99h-100v-200h-100v-200z" />
<glyph unicode="&#xd9;" d="M100 300v1000h200v-900h100v-100h400v100h100v900h200v-1000h-100v-100h-100v-100h-600v100h-100v100h-100zM300 1600v100h300v-100h100v-100h100v-100h-200v100h-200v100h-100z" />
<glyph unicode="&#xda;" d="M100 300v1000h200v-900h100v-100h400v100h100v900h200v-1000h-100v-100h-100v-100h-600v100h-100v100h-100zM400 1400v100h100v100h100v100h300v-100h-100v-100h-200v-100h-200z" />
<glyph unicode="&#xdb;" d="M100 300v1000h200v-900h100v-100h400v100h100v900h200v-1000h-100v-100h-100v-100h-600v100h-100v100h-100zM300 1400v100h100v100h100v100h200v-100h100v-100h100v-100h-200v100h-200v-100h-200z" />
<glyph unicode="&#xdc;" d="M100 300v1000h200v-900h100v-100h400v100h100v900h200v-1000h-100v-100h-100v-100h-600v100h-100v100h-100zM300 1500v200h200v-200h-200zM700 1500v200h200v-200h-200z" />
<glyph unicode="&#xdd;" d="M100 900v400h200v-300h100v-100h100v-100h200v100h100v100h100v300h200v-400h-100v-100h-100v-100h-100v-100h-100v-500h-200v500h-100v100h-100v100h-100v100h-100zM400 1400v100h100v100h100v100h300v-100h-100v-100h-200v-100h-200z" />
<glyph unicode="&#xde;" d="M100 100v1501h200v-301h600v-100h100v-100h100v-500h-100v-100h-100v-100h-600v-300h-200zM300 600h500v100h100v300h-100v100h-500v-500z" />
<glyph unicode="&#xdf;" d="M100 100v1400h100v100h100v100h200v-100h200v-100h100v-400h-100v-300h100v-100h100v-100h100v-400h-100v-100h-500v200h400v200h-100v100h-100v100h-100v400h100v300h-100v100h-100v-100h-100v-1300h-200z" />
<glyph unicode="&#xe0;" d="M100 300v300h100v100h100v100h500v-100h100v200h-100h-500v200h600v-100h100v-100h100v-800h-200v100h-100v-100h-500v100h-100v100h-100zM300 400h100v-100h400v100h100v100h-100v100h-400v-100h-100v-100zM300 1400v100h300v-100h100v-100h100v-100h-200v100h-200v100 h-100z" />
<glyph unicode="&#xe1;" d="M100 300v300h100v100h100v100h500v-100h100v200h-100h-500v200h600v-100h100v-100h100v-800h-200v100h-100v-100h-500v100h-100v100h-100zM300 400h100v-100h400v100h100v100h-100v100h-400v-100h-100v-100zM400 1200v100h100v100h100v100h300v-100h-100v-100h-200v-100 h-200z" />
<glyph unicode="&#xe2;" d="M100 300v300h100v100h100v100h500v-100h100v200h-100h-500v200h600v-100h100v-100h100v-800h-200v100h-100v-100h-500v100h-100v100h-100zM300 400h100v-100h400v100h100v100h-100v100h-400v-100h-100v-100zM300 1200v100h100v100h100v100h200v-100h100v-100h100v-100 h-200v100h-200v-100h-200z" />
<glyph unicode="&#xe3;" d="M100 300v300h100v100h100v100h500v-100h100v200h-100h-500v200h600v-100h100v-100h100v-800h-200v100h-100v-100h-500v100h-100v100h-100zM300 400h100v-100h400v100h100v100h-100v100h-400v-100h-100v-100zM300 1200v200h100v100h200v-100h200v100h100v-200h-100v-100 h-200v100h-200v-100h-100z" />
<glyph unicode="&#xe4;" d="M100 300v300h100v100h100v100h500v-100h100v200h-100h-500v200h600v-100h100v-100h100v-800h-200v100h-100v-100h-500v100h-100v100h-100zM300 400h100v-100h400v100h100v100h-100v100h-400v-100h-100v-100zM300 1300v200h200v-200h-200zM700 1300v200h200v-200h-200z " />
<glyph unicode="&#xe5;" d="M100 300v300h100v100h100v100h500v-100h100v200h-100h-500v200h600v-100h100v-100h100v-800h-200v100h-100v-100h-500v100h-100v100h-100zM300 400h100v-100h400v100h100v100h-100v100h-400v-100h-100v-100zM400 1200v200h100v-200h-100zM500 1100v100h200v-100h-200z M500 1400v100h200v-100h-200zM700 1200v200h100v-200h-100z" />
<glyph unicode="&#xe6;" d="M100 200v500h100v100h300v200h-400v200h400v-100h200v100h300v-100h100v-500h-400v-300h300v-200h-300v100h-100v-100h-400v100h-100zM300 300h200v300h-200v-300zM700 800h200v200h-200v-200z" />
<glyph unicode="&#xe7;" d="M100 600v600h100v100h100v100h600v-100h100v-100h100v-200h-200v100h-100v100h-400v-100h-100v-400h100v-100h400v100h100v100h200v-200h-100v-100h-100v-100h-100v-100h-100v-100h-100v-100h-300v100h100v100h100v100h-200v100h-100v100h-100z" />
<glyph unicode="&#xe8;" d="M100 300v600h100v100h100v100h600v-100h100v-100h100v-300h-100v-100h-700v-100h100v-100h400v100h300v-100h-100v-100h-100v-100h-600v100h-100v100h-100zM300 700h600v100h-100v100h-400v-100h-100v-100zM300 1400v100h300v-100h100v-100h100v-100h-200v100h-200v100 h-100z" />
<glyph unicode="&#xe9;" d="M100 300v600h100v100h100v100h600v-100h100v-100h100v-300h-100v-100h-700v-100h100v-100h400v100h300v-100h-100v-100h-100v-100h-600v100h-100v100h-100zM300 700h600v100h-100v100h-400v-100h-100v-100zM400 1200v100h100v100h100v100h300v-100h-100v-100h-200v-100 h-200z" />
<glyph unicode="&#xea;" d="M100 300v600h100v100h100v100h600v-100h100v-100h100v-300h-100v-100h-700v-100h100v-100h400v100h300v-100h-100v-100h-100v-100h-600v100h-100v100h-100zM300 700h600v100h-100v100h-400v-100h-100v-100zM300 1200v100h100v100h100v100h200v-100h100v-100h100v-100 h-200v100h-200v-100h-200z" />
<glyph unicode="&#xeb;" d="M100 300v600h100v100h100v100h600v-100h100v-100h100v-300h-100v-100h-700v-100h100v-100h400v100h300v-100h-100v-100h-100v-100h-600v100h-100v100h-100zM300 700h600v100h-100v100h-400v-100h-100v-100zM300 1300v200h200v-200h-200zM700 1300v200h200v-200h-200z" />
<glyph unicode="&#xec;" d="M200 1400v100h300v-100h100v-100h100v-100h-200v100h-200v100h-100zM300 800v200h400v-600h100v-100h100v-200h-200v100h-100v100h-100v500h-200zM300 800v200h400v-600h100v-100h100v-200h-200v100h-100v100h-100v500h-200z" />
<glyph unicode="&#xed;" d="M300 800v200h400v-600h100v-100h100v-200h-200v100h-100v100h-100v500h-200zM300 800v200h400v-600h100v-100h100v-200h-200v100h-100v100h-100v500h-200zM400 1200v100h100v100h100v100h300v-100h-100v-100h-200v-100h-200z" />
<glyph unicode="&#xee;" d="M200 1200v100h100v100h100v100h200v-100h100v-100h100v-100h-200v100h-200v-100h-200zM300 800v200h400v-600h100v-100h100v-200h-200v100h-100v100h-100v500h-200zM300 800v200h400v-600h100v-100h100v-200h-200v100h-100v100h-100v500h-200z" />
<glyph unicode="&#xef;" d="M200 1300v200h200v-200h-200zM300 800v200h400v-600h100v-100h100v-200h-200v100h-100v100h-100v500h-200zM300 800v200h400v-600h100v-100h100v-200h-200v100h-100v100h-100v500h-200zM600 1300v200h200v-200h-200z" />
<glyph unicode="&#xf0;" d="M100 300v600h100v100h100v100h500v100h-400v200h400v200h200v-200h99v-200h-99v-900h-100v-100h-100v-100h-500v100h-100v100h-100zM300 400h100v-100h300v100h100v500h-400v-100h-100v-400z" />
<glyph unicode="&#xf1;" d="M100 100v1000h200v-100h100v100h500v-100h100v-100h100v-800h-200v700h-100v100h-400v-100h-100v-700h-200zM300 1200v200h100v100h200v-100h200v100h100v-200h-100v-100h-200v100h-200v-100h-100z" />
<glyph unicode="&#xf2;" d="M100 300v600h100v100h100v100h600v-100h100v-100h100v-600h-100v-100h-100v-100h-600v100h-100v100h-100zM300 400h100v-100h400v100h100v400h-100v100h-400v-100h-100v-400zM300 1400v100h300v-100h100v-100h100v-100h-200v100h-200v100h-100z" />
<glyph unicode="&#xf3;" d="M100 300v600h100v100h100v100h600v-100h100v-100h100v-600h-100v-100h-100v-100h-600v100h-100v100h-100zM300 400h100v-100h400v100h100v400h-100v100h-400v-100h-100v-400zM400 1200v100h100v100h100v100h300v-100h-100v-100h-200v-100h-200z" />
<glyph unicode="&#xf4;" d="M100 300v600h100v100h100v100h600v-100h100v-100h100v-600h-100v-100h-100v-100h-600v100h-100v100h-100zM300 400h100v-100h400v100h100v400h-100v100h-400v-100h-100v-400zM300 1200v100h100v100h100v100h200v-100h100v-100h100v-100h-200v100h-200v-100h-200z" />
<glyph unicode="&#xf5;" d="M100 300v600h100v100h100v100h600v-100h100v-100h100v-600h-100v-100h-100v-100h-600v100h-100v100h-100zM300 400h100v-100h400v100h100v400h-100v100h-400v-100h-100v-400zM300 1200v200h100v100h200v-100h200v100h100v-200h-100v-100h-200v100h-200v-100h-100z" />
<glyph unicode="&#xf6;" d="M100 300v600h100v100h100v100h600v-100h100v-100h100v-600h-100v-100h-100v-100h-600v100h-100v100h-100zM300 400h100v-100h400v100h100v400h-100v100h-400v-100h-100v-400zM300 1300v200h200v-200h-200zM700 1300v200h200v-200h-200z" />
<glyph unicode="&#xf8;" d="M100 100v200h100v100h-100v600h100v100h100v100h500v-100h100v100h200v-200h-100v-100h100v-600h-100v-100h-100v-100h-500v100h-100v-100h-200zM300 500h100v100h100v100h100v100h100v100h100v100h-400v-100h-100v-400zM400 300h400v100h100v400h-100v-100h-100v-100 h-100v-100h-100v-100h-100v-100z" />
<glyph unicode="&#xf9;" d="M100 300v800h200v-700h100v-100h400v100h100v700h200v-800h-100v-100h-100v-100h-600v100h-100v100h-100zM300 1400v100h300v-100h100v-100h100v-100h-200v100h-200v100h-100z" />
<glyph unicode="&#xfa;" d="M100 300v800h200v-700h100v-100h400v100h100v700h200v-800h-100v-100h-100v-100h-600v100h-100v100h-100zM400 1200v100h100v100h100v100h300v-100h-100v-100h-200v-100h-200z" />
<glyph unicode="&#xfb;" d="M100 300v800h200v-700h100v-100h400v100h100v700h200v-800h-100v-100h-100v-100h-600v100h-100v100h-100zM300 1200v100h100v100h100v100h200v-100h100v-100h100v-100h-200v100h-200v-100h-200z" />
<glyph unicode="&#xfc;" d="M100 300v800h200v-700h100v-100h400v100h100v700h200v-800h-100v-100h-100v-100h-600v100h-100v100h-100zM300 1300v200h200v-200h-200zM700 1300v200h200v-200h-200z" />
<glyph unicode="&#xfd;" d="M100 700v400h200v-300h100v-100h200v100h100v100h100v100h100v100h200v-800h-100v-100h-100v-100h-600v200h500v100h100v300h-100v-100h-100v-100h-400v100h-100v100h-100zM400 1200v100h100v100h100v100h300v-100h-100v-100h-200v-100h-200z" />
<glyph unicode="&#xfe;" d="M100 100v1300h200v-300h200v100h400v-100h100v-100h100v-500h-100v-100h-100v-100h-400v100h-200v-300h-200zM300 600h200v-100h300v100h100v300h-100v100h-300v-100h-200v-300z" />
<glyph unicode="&#xff;" d="M100 700v400h200v-300h100v-100h200v100h100v100h100v100h100v100h200v-800h-100v-100h-100v-100h-600v200h500v100h100v300h-100v-100h-100v-100h-400v100h-100v100h-100zM300 1300v200h200v-200h-200zM700 1300v200h200v-200h-200z" />
<glyph unicode="&#x2000;" horiz-adv-x="850" />
<glyph unicode="&#x2001;" horiz-adv-x="1700" />
<glyph unicode="&#x2002;" horiz-adv-x="850" />
<glyph unicode="&#x2003;" horiz-adv-x="1700" />
<glyph unicode="&#x2004;" horiz-adv-x="566" />
<glyph unicode="&#x2005;" horiz-adv-x="425" />
<glyph unicode="&#x2006;" horiz-adv-x="283" />
<glyph unicode="&#x2007;" horiz-adv-x="283" />
<glyph unicode="&#x2008;" horiz-adv-x="212" />
<glyph unicode="&#x2009;" horiz-adv-x="340" />
<glyph unicode="&#x200a;" horiz-adv-x="94" />
<glyph unicode="&#x2010;" d="M200 700v200h800v-200h-800z" />
<glyph unicode="&#x2011;" d="M200 700v200h800v-200h-800z" />
<glyph unicode="&#x2012;" d="M200 700v200h800v-200h-800z" />
<glyph unicode="&#x2013;" horiz-adv-x="1424" d="M200 700v200h1024v-200h-1024z" />
<glyph unicode="&#x2014;" horiz-adv-x="2448" d="M200 700v200h2048v-200h-2048z" />
<glyph unicode="&#x2018;" d="M600 900v400h100v100h100v-200h100v-300h-300zM800 1400v100h100v-100h-100z" />
<glyph unicode="&#x2019;" d="M300 900v100h100v-100h-100zM300 1200v300h300v-400h-100v-100h-100v200h-100z" />
<glyph unicode="&#x201c;" d="M200 900v400h100v100h100v-200h100v-300h-300zM400 1400v100h100v-100h-100zM700 900v400h100v100h100v-200h100v-300h-300zM900 1400v100h100v-100h-100z" />
<glyph unicode="&#x201d;" d="M200 900v100h100v-100h-100zM200 1200v300h300v-400h-100v-100h-100v200h-100zM700 900v100h100v-100h-100zM700 1200v300h300v-400h-100v-100h-100v200h-100z" />
<glyph unicode="&#x2022;" d="M300 700v300h100v100h400v-100h100v-300h-100v-100h-400v100h-100z" />
<glyph unicode="&#x2026;" d="M100 100v200h200v-200h-200zM500 100v200h200v-200h-200zM900 100v200h200v-200h-200z" />
<glyph unicode="&#x202f;" horiz-adv-x="340" />
<glyph unicode="&#x2039;" d="M200 500v100h100v100h100v100h100v100h100v100h100v-200h-100v-100h-100v-100h-100v-100h100v-100h100v-100h100v-200h-100v100h-100v100h-100v100h-100v100h-100z" />
<glyph unicode="&#x203a;" d="M300 100v200h100v100h100v100h100v100h-100v100h-100v100h-100v200h100v-100h100v-100h100v-100h100v-100h100v-100h-100v-100h-100v-100h-100v-100h-100v-100h-100z" />
<glyph unicode="&#x205f;" horiz-adv-x="425" />
<glyph unicode="&#x20ac;" d="M100 700v200h100v100h-100v200h100v200h100v100h100v100h100v100h400v-100h100v-100h100v-100h-200v100h-300v-100h-100v-100h-100v-100h300v-200h-300v-100h300v-200h-300v-200h100v-100h100v-100h300v100h200v-100h-100v-100h-100v-100h-400v100h-100v100h-100v100 h-100v300h-100z" />
<glyph unicode="&#x2122;" d="M100 1400v100h500v-100h-200v-500h-100v500h-200zM600 900v600h100v-100h100v-100h-100v-400h-100zM800 1200v100h100v-100h-100zM900 1300v100h100v100h100v-600h-100v400h-100z" />
<glyph unicode="&#x25fc;" d="M0 0v1200h1200v-1200h-1200z" />
</font>
</defs>
</svg>
