<?xml version="1.0" encoding="utf-8"?>
<!-- Generator: Adobe Illustrator 14.0.0, SVG Export Plug-In . SVG Version: 6.00 Build 43363)  -->
<!DOCTYPE svg PUBLIC "-//W3C//DTD SVG 1.1//EN" "http://www.w3.org/Graphics/SVG/1.1/DTD/svg11.dtd">
<svg version="1.1" id="Layer_1" xmlns="http://www.w3.org/2000/svg" xmlns:xlink="http://www.w3.org/1999/xlink" x="0px" y="0px"
	 width="420.623px" height="47.74px" viewBox="0 0 420.623 47.74" enable-background="new 0 0 420.623 47.74" xml:space="preserve">
<path fill="#FFFFFF" d="M4.896,26.643v18.289c0,1.512-0.72,2.232-2.16,2.232H2.088C0.72,47.164,0,46.443,0,44.932V3.023
	c0-1.512,1.224-2.736,2.735-2.736h26.066c1.44,0,2.232,0.721,2.232,2.016v0.434c0,1.367-0.792,2.016-2.232,2.016H4.896v17.57"/>
<path fill="#FFFFFF" d="M63.575,44.139V2.232c0-1.514,0.72-2.232,2.088-2.232h0.647c1.44,0,2.16,0.719,2.16,2.232V42.34h22.467
	c1.439,0,2.231,0.719,2.231,2.088v0.359c0,1.297-0.792,2.088-2.231,2.088H66.311C64.799,46.875,63.575,45.652,63.575,44.139z"/>
<path fill="#FFFFFF" d="M124.414,28.514V2.232c0-1.441,0.721-2.232,2.088-2.232h0.648c1.44,0,2.16,0.791,2.16,2.232v25.922
	c0,10.008,4.465,15.193,13.321,15.193c9.001,0,13.321-5.041,13.321-15.266V2.232c0-1.514,0.576-2.232,2.016-2.232h0.864
	c1.368,0,1.944,0.719,1.944,2.232v26.066c0,12.6-6.48,19.441-18.289,19.441C130.751,47.74,124.414,41.043,124.414,28.514z"/>
<path fill="#FFFFFF" d="M195.621,28.514V2.232c0-1.441,0.721-2.232,2.088-2.232h0.648c1.44,0,2.16,0.791,2.16,2.232v25.922
	c0,10.008,4.465,15.193,13.321,15.193c9.001,0,13.321-5.041,13.321-15.266V2.232c0-1.514,0.576-2.232,2.016-2.232h0.864
	c1.368,0,1.944,0.719,1.944,2.232v26.066c0,12.6-6.48,19.441-18.289,19.441C201.958,47.74,195.621,41.043,195.621,28.514z"/>
<path fill="#FFFFFF" d="M266.829,28.514V2.232c0-1.441,0.721-2.232,2.089-2.232h0.647c1.44,0,2.16,0.791,2.16,2.232v25.922
	c0,10.008,4.465,15.193,13.321,15.193c9.001,0,13.321-5.041,13.321-15.266V2.232c0-1.514,0.576-2.232,2.016-2.232h0.864
	c1.368,0,1.944,0.719,1.944,2.232v26.066c0,12.6-6.48,19.441-18.289,19.441C273.166,47.74,266.829,41.043,266.829,28.514z"/>
<path fill="#FFFFFF" d="M339.477,44.932V2.232c0-1.441,0.72-2.232,2.088-2.232h0.648c1.439,0,2.16,0.791,2.16,2.232v42.699
	c0,1.512-0.721,2.232-2.16,2.232h-0.648C340.196,47.164,339.477,46.443,339.477,44.932z"/>
<path fill="#FFFFFF" d="M395.133,0.287h-11.018c-1.512,0-2.735,1.225-2.735,2.736v1.364h4.896v0.22h8.857
	c12.817,0,20.449,7.129,20.449,19.01c0,12.025-7.416,18.938-20.521,18.938h-8.785v-0.363h-4.896v1.947
	c0,1.514,1.224,2.736,2.735,2.736h10.657c16.201,0,25.851-8.713,25.851-23.402C420.623,8.855,411.19,0.287,395.133,0.287z"/>
</svg>
