<?xml version="1.0" encoding="utf-8"?>
<!-- Generator: Adobe Illustrator 18.1.1, SVG Export Plug-In . SVG Version: 6.00 Build 0)  -->
<svg version="1.1" id="Layer_1" xmlns="http://www.w3.org/2000/svg" xmlns:xlink="http://www.w3.org/1999/xlink" x="0px" y="0px"
	 viewBox="0 0 221.429 57.253" enable-background="new 0 0 221.429 57.253" xml:space="preserve">
<path d="M50.945,53.07V14.925L34.222,53.07h-6.22L11.418,14.925V53.07H4.715V4.075h9.19l17.276,39.873L48.595,4.075h9.053V53.07
	H50.945z"/>
<path d="M83.659,53.681c-6.975,0-12.564-4.296-12.564-12.333V20.193h6.374v20.693c0,4.296,2.402,6.559,6.19,6.559
	c3.88,0,6.236-2.263,6.236-6.559V20.193h6.374v21.155C96.269,49.386,90.68,53.681,83.659,53.681"/>
<path d="M193.748,11.124l8.499,21.975h-16.861L193.748,11.124z M209.988,53.07h7.325L197.826,4.075h-7.809L170.53,53.07h7.256
	l5.183-13.684h21.698L209.988,53.07z"/>
<path d="M135.099,53.07c12.439,0,23.428-8.362,23.428-24.395c0-16.101-10.851-24.601-23.289-24.601h-17.137V53.07H135.099z
	 M124.872,47.057V10.087h10.158c9.053,0,16.516,6.22,16.516,18.589c0,12.301-7.602,18.382-16.654,18.382H124.872z"/>
</svg>
